<svg xmlns="http://www.w3.org/2000/svg" viewBox="0 0 599.57825 281.38872" width="600" height="281" role="img" aria-label="IGN">
  <!-- Monogramme IGN (marque déposée de l'IGN), extrait du logo officiel 2012
       (Wikimedia Commons, fr.wikipedia.org/wiki/Fichier:IGN_logo_2012.svg) :
       ligne de texte retirée, viewBox recadré sur le pictogramme. -->
  <g transform="matrix(9.4565629,0,0,-9.469235,-4773.6257,902.41147)">
    <path style="fill:#676c70" d="m 504.795,66.513 h 5.446 V 94.37 h -5.446 z"/>
    <path style="fill:#676c70" d="m 563.1384,94.3693 v -16.688 c -0.919,1.02 -15.878,17.618 -15.878,17.618 h -0.832 v -28.787 h 5.058 v 16.462 c 0.921,-1.01 15.843,-17.391 15.843,-17.391 h 0.869 v 28.786 z"/>
    <path style="fill:#676c70" d="m 534.9186,74.5642 -0.289,0.011 v -2.896 c -1.815,-0.688 -3.203,-0.962 -4.877,-0.962 -5.955,0 -9.802,3.985 -9.802,10.151 0,5.852 3.623,9.491 9.453,9.491 3.297,0 6.017,-1.221 8.084,-3.625 l 0.451,-0.522 0.4,6.345 -0.124,0.091 c -0.877,0.639 -1.289,0.843 -2.338,1.31 -2.185,0.953 -4.04,1.341 -6.396,1.341 -4.236,0 -8.061,-1.472 -10.77,-4.146 -2.712,-2.675 -4.204,-6.452 -4.204,-10.634 0,-8.656 6.166,-14.936 14.665,-14.936 2.129,0 4.535,0.371 6.597,1.02 1.442,0.44 2.25,0.771 4.11,1.684 l 0.157,0.075 v 7.047 l -0.374,-0.135 c -1.483,-0.525 -3.077,-0.764 -4.743,-0.71"/>
    <path style="fill:#80cc28" d="m 533.8509,83.5074 c -0.012,0.005 -0.027,0.007 -0.038,0.012 -3.469,0.9 -6.995,0.389 -9.6,-1.332 1.444,-2.757 4.269,-4.902 7.729,-5.801 0.01,-0.002 0.028,-0.007 0.028,-0.007 3.47,-0.899 6.991,-0.389 9.595,1.33 -1.438,2.756 -4.257,4.902 -7.714,5.798"/>
  </g>
</svg>
