<svg xmlns="http://www.w3.org/2000/svg" viewBox="-14 -14 1068 335" width="340" height="107" role="img" aria-label="INPN">
  <!-- Monogramme « iNPN » de l'Inventaire national du patrimoine naturel (INPN),
       co-producteur de CarHab. Baseline « INVENTAIRE NATIONAL… » retirée (comme les
       logos IGN/OFB) pour rester lisible en badge sur fond clair et sombre. -->
  <defs>
  <linearGradient id="g-i" gradientUnits="userSpaceOnUse" x1="0" y1="0" x2="60" y2="0"><stop offset="0" stop-color="#b4ae20"/><stop offset="1" stop-color="#b9b62e"/></linearGradient>
  <linearGradient id="g-n1" gradientUnits="userSpaceOnUse" x1="116" y1="0" x2="382" y2="0"><stop offset="0" stop-color="#a5ad62"/><stop offset="1" stop-color="#6eafb1"/></linearGradient>
  <linearGradient id="g-p" gradientUnits="userSpaceOnUse" x1="438" y1="0" x2="639" y2="0"><stop offset="0" stop-color="#57adb1"/><stop offset="1" stop-color="#9abb97"/></linearGradient>
  <linearGradient id="g-n2" gradientUnits="userSpaceOnUse" x1="661" y1="0" x2="978" y2="0"><stop offset="0" stop-color="#b8ba8b"/><stop offset="1" stop-color="#e7bd55"/></linearGradient>
</defs>
  <g>
    <path d="M 0 0 L 0 59 L 59 59 L 59 0 Z M 0 76 L 0 307 L 59 307 L 59 76 Z" fill="url(#g-i)"/>
    <path d="M 116 0 L 116 307 L 175 307 L 175 89 L 176 88 L 179 92 L 180 95 L 182 97 L 183 100 L 185 102 L 187 107 L 189 109 L 193 117 L 195 119 L 197 124 L 199 126 L 203 134 L 205 136 L 207 141 L 209 143 L 210 146 L 212 148 L 214 153 L 216 155 L 217 158 L 219 160 L 220 163 L 222 165 L 224 170 L 226 172 L 227 175 L 229 177 L 230 180 L 232 182 L 234 187 L 236 189 L 237 192 L 239 194 L 240 197 L 242 199 L 244 204 L 246 206 L 247 209 L 249 211 L 250 214 L 252 216 L 254 221 L 256 223 L 257 226 L 259 228 L 260 231 L 262 233 L 264 238 L 266 240 L 271 250 L 273 252 L 274 255 L 276 257 L 277 260 L 279 262 L 281 267 L 283 269 L 284 272 L 286 274 L 287 277 L 289 279 L 291 284 L 293 286 L 294 289 L 296 291 L 297 294 L 299 296 L 304 306 L 305 307 L 381 307 L 381 0 L 322 0 L 322 218 L 321 219 L 319 217 L 318 214 L 316 212 L 315 209 L 313 207 L 311 202 L 309 200 L 308 197 L 306 195 L 305 192 L 303 190 L 301 185 L 299 183 L 298 180 L 296 178 L 295 175 L 293 173 L 291 168 L 289 166 L 288 163 L 286 161 L 284 156 L 282 154 L 281 151 L 279 149 L 278 146 L 276 144 L 274 139 L 272 137 L 271 134 L 269 132 L 268 129 L 266 127 L 264 122 L 262 120 L 261 117 L 259 115 L 258 112 L 256 110 L 254 105 L 252 103 L 251 100 L 249 98 L 248 95 L 246 93 L 244 88 L 242 86 L 241 83 L 239 81 L 238 78 L 236 76 L 234 71 L 232 69 L 231 66 L 229 64 L 227 59 L 225 57 L 224 54 L 222 52 L 221 49 L 219 47 L 217 42 L 215 40 L 214 37 L 212 35 L 211 32 L 209 30 L 207 25 L 205 23 L 204 20 L 202 18 L 201 15 L 199 13 L 197 8 L 195 6 L 192 0 Z" fill="url(#g-n1)"/>
    <path d="M 438 0 L 438 307 L 497 307 L 497 184 L 498 183 L 549 183 L 550 182 L 557 182 L 558 181 L 563 181 L 564 180 L 568 180 L 569 179 L 572 179 L 573 178 L 575 178 L 576 177 L 578 177 L 579 176 L 584 175 L 587 173 L 589 173 L 595 170 L 597 168 L 600 167 L 606 162 L 607 162 L 620 149 L 620 148 L 625 142 L 631 130 L 631 128 L 632 127 L 632 125 L 633 124 L 633 122 L 635 118 L 635 114 L 636 113 L 636 108 L 637 107 L 637 93 L 638 92 L 637 90 L 637 77 L 636 76 L 636 71 L 635 70 L 635 66 L 634 65 L 634 62 L 633 61 L 632 56 L 629 51 L 629 49 L 627 45 L 625 43 L 624 40 L 621 37 L 621 36 L 618 33 L 618 32 L 610 24 L 609 24 L 605 20 L 604 20 L 596 14 L 588 10 L 586 10 L 583 8 L 581 8 L 580 7 L 578 7 L 574 5 L 567 4 L 566 3 L 562 3 L 561 2 L 555 2 L 554 1 L 544 1 L 543 0 Z M 497 53 L 498 52 L 543 52 L 544 53 L 548 53 L 549 54 L 554 55 L 560 58 L 563 61 L 564 61 L 571 69 L 574 75 L 574 77 L 576 81 L 576 87 L 577 88 L 577 95 L 576 96 L 576 101 L 575 102 L 575 105 L 569 117 L 562 124 L 561 124 L 559 126 L 553 129 L 551 129 L 550 130 L 547 130 L 546 131 L 498 131 L 497 130 Z" fill="url(#g-p)"/>
    <path d="M 661 0 L 661 307 L 720 307 L 720 88 L 721 87 L 723 91 L 725 93 L 726 96 L 728 98 L 733 108 L 735 110 L 736 113 L 738 115 L 740 120 L 742 122 L 743 125 L 745 127 L 746 130 L 748 132 L 750 137 L 752 139 L 753 142 L 755 144 L 756 147 L 758 149 L 760 154 L 762 156 L 763 159 L 765 161 L 766 164 L 768 166 L 770 171 L 772 173 L 773 176 L 775 178 L 777 183 L 779 185 L 780 188 L 782 190 L 783 193 L 785 195 L 787 200 L 789 202 L 790 205 L 792 207 L 793 210 L 795 212 L 797 217 L 799 219 L 800 222 L 802 224 L 803 227 L 805 229 L 807 234 L 809 236 L 810 239 L 812 241 L 813 244 L 815 246 L 817 251 L 819 253 L 820 256 L 822 258 L 823 261 L 825 263 L 827 268 L 829 270 L 830 273 L 832 275 L 834 280 L 836 282 L 837 285 L 839 287 L 840 290 L 842 292 L 844 297 L 846 299 L 850 307 L 927 307 L 927 118 L 930 116 L 947 116 L 948 115 L 967 115 L 968 114 L 971 114 L 974 111 L 974 108 L 975 107 L 975 81 L 974 80 L 974 43 L 971 41 L 975 38 L 976 36 L 976 34 L 975 33 L 966 33 L 965 34 L 963 34 L 962 35 L 959 35 L 958 36 L 952 36 L 951 37 L 943 37 L 942 38 L 930 38 L 928 39 L 927 38 L 927 0 L 867 0 L 867 218 L 866 219 L 864 215 L 862 213 L 861 210 L 859 208 L 858 205 L 856 203 L 851 193 L 849 191 L 847 186 L 845 184 L 844 181 L 842 179 L 841 176 L 839 174 L 837 169 L 835 167 L 834 164 L 832 162 L 831 159 L 829 157 L 827 152 L 825 150 L 824 147 L 822 145 L 821 142 L 819 140 L 817 135 L 815 133 L 814 130 L 812 128 L 811 125 L 809 123 L 807 118 L 805 116 L 804 113 L 802 111 L 801 108 L 799 106 L 797 101 L 795 99 L 794 96 L 792 94 L 790 89 L 788 87 L 787 84 L 785 82 L 784 79 L 782 77 L 780 72 L 778 70 L 777 67 L 775 65 L 774 62 L 772 60 L 770 55 L 768 53 L 767 50 L 765 48 L 764 45 L 762 43 L 760 38 L 758 36 L 757 33 L 755 31 L 754 28 L 752 26 L 750 21 L 748 19 L 747 16 L 745 14 L 744 11 L 742 9 L 738 1 L 737 0 Z" fill="url(#g-n2)"/>
    <path d="M 893 35 C 915 32 944 30 968 26 C 974 26 978 31 978 38 L 978 94 C 978 101 973 106 966 107 L 896 108 C 886 108 881 103 881 94 L 883 46 C 883 40 887 36 893 35 Z" fill="#49aab4" fill-opacity="0.78"/>
    <path d="M 1024 1 L 1022 0 L 1014 0 L 1013 1 L 1000 1 L 999 2 L 999 26 L 998 28 L 1004 28 L 1005 27 L 1014 27 L 1015 26 L 1025 26 L 1026 25 L 1025 23 L 1025 21 L 1026 20 L 1026 4 L 1024 2 Z" fill="#42a9b3"/>
    <path d="M 1039 117 L 1036 117 L 1035 116 L 1028 116 L 1027 117 L 1000 117 L 994 121 L 991 121 L 990 122 L 990 153 L 989 154 L 989 157 L 990 158 L 990 164 L 992 165 L 994 165 L 995 166 L 998 166 L 999 165 L 1012 165 L 1013 164 L 1032 164 L 1033 163 L 1035 163 L 1037 162 L 1037 160 L 1039 158 L 1039 156 L 1040 155 L 1040 133 L 1039 132 Z" fill="#42a9b3"/>
  </g>
</svg>
