<svg xmlns="http://www.w3.org/2000/svg" viewBox="0 0 253.38481 59.949291" width="600" height="142" role="img" aria-label="Insee">
  <!-- Logotype Insee 2025 (marque de l'Insee), source vectorielle
       fr.wikipedia.org/wiki/Fichier:Logo_Insee_2025.svg : baseline
       « Mesurer pour comprendre » et métadonnées Inkscape retirées,
       viewBox recadré sur le logotype (badge de coédition). Le mot « Insee »
       est en gris #676c70 (comme le monogramme IGN) — ton moyen lisible sur
       fond clair comme sombre, un <img> SVG n'héritant pas du thème de la page ;
       les barres conservent les couleurs de charte (vives sur les deux fonds). -->
  <g
     transform="matrix(0.26458333,0,0,0.26458333,-58.74326,46.95532)">
    <path
       fill="#676c70"
       d="m 907.18919,-40.328934 c 3.23,-19.87 16.15,-31.05 36.77,-31.05 19.13,0 29.81,12.17 31.3,31.05 z m 43.23,89.44 c 23.1,0 42.73,-6.71 55.90001,-16.4 V -1.8189338 c -12.67001,10.68 -29.81001,20.6199998 -51.43001,20.6199998 -29.32,0 -43.97,-12.1699998 -47.7,-34.78 h 103.60001 c 0.99,-4.22 1.74,-9.69 1.74,-16.65 0,-40.74 -26.09001,-67.33 -68.07001,-67.33 -45.96,0 -74.78,30.81 -74.78,74.53 0,49.19 33.04,74.53 80.74,74.53 z m -205.96,-89.44 c 3.23,-19.87 16.15,-31.05 36.77,-31.05 19.13,0 29.81,12.17 31.3,31.05 z m 43.23,89.44 c 23.1,0 42.73,-6.71 55.9,-16.4 V -1.8189338 c -12.67,10.68 -29.81,20.6199998 -51.43,20.6199998 -29.32,0 -43.97,-12.1699998 -47.7,-34.78 h 103.6 c 0.99,-4.22 1.74,-9.69 1.74,-16.65 0,-40.74 -26.09,-67.33 -68.07,-67.33 -45.96,0 -74.78,30.81 -74.78,74.53 0,49.19 33.04,74.53 80.74,74.53 z m -168.69,0 c 39,0 66.33,-15.65 66.33,-48.68999983 0,-33.04000017 -29.56,-38.26000017 -62.61,-43.23000017 -25.09,-3.73 -37.27,-4.97 -37.27,-14.41 0,-9.44 11.43,-13.17 30.31,-13.17 20.87,0 44.22,7.2 63.6,18.88 v -33.29 c -17.39,-9.44 -39.5,-15.15 -63.1,-15.15 -37.51,0 -65.59,14.41 -65.59,44.22 0,34.04 32.05,41.49 62.36,45.71 22.61,3.2300002 36.27,3.9700002 36.27,15.4000002 0,10.1899998 -10.93,13.4199998 -30.81,13.4199998 -26.33,0 -50.43,-8.9399998 -68.57,-26.0899998 V 30.221066 c 14.91,10.68 41.74,18.88 69.06,18.88 z m -230.54,-2.49 h 36.77 v -80.99 c 0.5,-22.61 11.43,-36.52 30.56,-36.52 20.87,0 27.58,13.42 27.58,33.04 v 84.47 h 36.77 v -89.93 c 0,-38.01 -22.11,-56.64 -52.67,-56.64 -17.39,0 -32.55,6.46 -42.23,20.37 v -17.89 h -36.77 v 144.09 z m -166.46,0 h 137.88 v -28.57 h -49.44 V -123.55893 h 49.44 v -28.57 h -137.88 v 28.57 h 49.44 V 18.051066 h -49.44 z" />
    <g
       transform="translate(60.579194,-313.54893)">
      <rect
         x="1082.37"
         y="136.08"
         width="36.77"
         height="124.96"
         style="fill:#c869ff" />
      <rect
         x="1032.4399"
         y="184.03"
         width="36.77"
         height="77.010002"
         style="fill:#7a57ff" />
      <polygon
         points="982.5,298.56 985.24,298.56 1019.27,261.05 1019.27,161.42 982.5,161.42 "
         style="fill:#248bff" />
    </g>
  </g>
</svg>
