<svg xmlns="http://www.w3.org/2000/svg" viewBox="44.2889 5.8864 24.8075 24.8073" width="300" height="300" role="img" aria-label="OFB">
  <!-- Monogramme de l'Office français de la biodiversité (OFB), co-producteur
       de la BD HAIE avec l'IGN. Pictogramme seul extrait de l'export officiel
       Illustrator (texte « OFB » et baseline retirés, comme le logo IGN) ;
       viewBox recadré sur le disque (bbox mesurée via inkscape), couleurs inchangées. -->
  <g>
    <path d="M51.9106,16.4227c-.0093.008-.0193.0153-.0286.0226-1.9954,1.6332-3.9749,1.8448-4.477,1.8448h4.6197s1.8574-.0006,5.573-3.7062c-2.5169.0955-4.0221.4789-5.6871,1.8388" fill="#60a5dd"/>
    <path d="M62.2947,22.9583c.0856.2136.1725.4172.262.6123-2.0518-.4186-3.6949-1.2445-4.9301-2.4797-2.8008-2.8008-5.6022-2.8008-5.6022-2.8008h5.6022s2.8007,0,4.6681,4.6682" fill="#5ea551"/>
    <path d="M57.5976,14.5841c.0099-.0099.0192-.0192.0292-.0285,1.7055-1.7055,4.1898-3.4104,7.4529-3.693.9473,1.0687,1.693,2.3192,2.1786,3.693h-7.7648c-.6939,0-1.3214.0067-1.8959.0285" fill="#85c3ef"/>
    <path d="M47.3603,18.2901c.1472.0013,4.7099.0909,7.4655,5.6021.8684,1.7374,2.4804,3.9498,5.502,4.9985-1.1397.3908-2.3622.603-3.6346.603-6.1879,0-11.2043-5.0157-11.2043-11.2036h1.8714Z" fill="#cada9e"/>
    <path d="M56.6929,7.0864c-6.1879,0-11.2037,5.0164-11.2037,11.2036h1.9159c.5014,0,2.4816-.2116,4.477-1.8448,1.0309-.8265,2.0764-2.0233,2.9434-3.7567.869-1.738,2.4803-3.9503,5.502-4.9991-1.1397-.3908-2.3623-.603-3.6346-.603" fill="#2c406e"/>
    <path d="M52.0247,18.2901s1.8581-.0007,5.5729-3.7056c.5745-.0219,1.202-.0292,1.8959-.0292h7.7648c.4126,1.1682.6381,2.4253.6381,3.7348h-15.8717Z" fill="#acd6f5"/>
    <path d="M65.0799,10.8626c-3.2631.2826-5.7482,1.9875-7.4537,3.693-.0092.0093-.0192.0186-.0285.0286-2.5168.0955-4.022.4789-5.6871,1.8388-.0092.0073-.0192.0146-.0285.0226,1.0309-.8266,2.0764-2.0233,2.9434-3.7574.869-1.7373,2.4803-3.9503,5.502-4.9984,1.8508.6341,3.482,1.74,4.7524,3.1728" fill="#4b82c2"/>
    <path d="M54.8257,23.8919c-2.7557-5.5113-7.3183-5.6002-7.4656-5.6022.002.0007.006,0,.0113,0h4.6535s2.8008,0,5.6015,2.8014c1.2352,1.2346,2.879,2.0611,4.9308,2.479.5639,1.2319,1.2107,2.1062,1.9782,2.7199-1.1788,1.1556-2.6117,2.0531-4.2078,2.6004-3.0216-1.0482-4.6329-3.2612-5.5019-4.9985" fill="#abc981"/>
    <path d="M62.5569,23.5703c-.0896-.195-.1765-.3987-.2621-.6123-1.8673-4.6681-4.6681-4.6681-4.6681-4.6681h10.2696c0,2.0411-.5459,3.9543-1.4992,5.6021h-.3682c-1.2644,0-2.4212-.1074-3.472-.3217" fill="#4b8142"/>
    <path d="M62.5569,23.5703c1.0508.2143,2.2076.3217,3.472.3217h.3682c-.5101.8823-1.1383,1.6883-1.8614,2.3974-.7682-.6129-1.415-1.4872-1.9788-2.7191" fill="#86b872"/>
  </g>
</svg>
