<svg xmlns="http://www.w3.org/2000/svg" viewBox="0 0 483 140" fill="none">
<g transform="translate(0 23.75) scale(.25)">
<path fill="#676c70" fill-rule="evenodd" d="M313 71Q313 75 310 78Q307 81 279.5 105.5Q252 130 250 130Q248 130 241.5 122Q235 114 223 103.5Q211 93 200 87Q189 81 178.5 78.5Q168 76 155 77Q142 78 136.5 80.5Q131 83 123 90Q115 97 112 103Q109 109 109 123.5Q109 138 111 142.5Q113 147 120 154.5Q127 162 138.5 169.5Q150 177 183 191Q216 205 233.5 215Q251 225 261 233Q271 241 281.5 253.5Q292 266 299.5 285Q307 304 307.5 330.5Q308 357 304 370.5Q300 384 294 396Q288 408 279 418.5Q270 429 260.5 436.5Q251 444 233.5 452Q216 460 201.5 463L187 466Q132 466 108.5 461L85 456L57 444Q40 433 20 414.5Q0 396 1.5 392.5Q3 389 32 362.5Q61 336 64 337Q67 338 74.5 347Q82 356 93.5 364.5Q105 373 116.5 378.5L128 384L153 389Q170 389 180.5 386.5Q191 384 199.5 377.5Q208 371 213 362Q218 353 217.5 337.5Q217 322 208 310Q199 298 185.5 289.5Q172 281 131 262.5Q90 244 76 234.5Q62 225 51.5 214.5Q41 204 31 184Q21 164 19.5 154Q18 144 18.5 124.5Q19 105 22 93.5Q25 82 32.5 68Q40 54 49.5 44Q59 34 70.5 26Q82 18 96 11.5Q110 5 125 2.5L140 0L200 2Q235 13 245 17.5L255 22L279 38Z M1559 71Q1557 77 1527 103.5Q1497 130 1495 130Q1493 130 1484.5 119.5Q1476 109 1466.5 101Q1457 93 1441.5 85.5Q1426 78 1413 77L1400 76Q1380 81 1371.5 87.5Q1363 94 1359.5 100Q1356 106 1354.5 119Q1353 132 1358.5 143Q1364 154 1375.5 163Q1387 172 1429 191Q1471 210 1489 221.5Q1507 233 1517.5 243Q1528 253 1534 261.5Q1540 270 1546 286.5Q1552 303 1553.5 314Q1555 325 1553.5 344Q1552 363 1547.5 377Q1543 391 1535.5 403Q1528 415 1520 423.5Q1512 432 1500.5 440Q1489 448 1474 454.5Q1459 461 1445.5 463.5Q1432 466 1405.5 466L1379 466Q1333 457 1318 450.5L1303 444L1280 429Q1245 396 1253 386.5Q1261 377 1284 356.5Q1307 336 1309 336Q1311 336 1320 346.5Q1329 357 1339 364.5Q1349 372 1361.5 378Q1374 384 1386 386.5Q1398 389 1410.5 388.5L1423 388Q1442 381 1448.5 375.5Q1455 370 1459 362.5Q1463 355 1463.5 340Q1464 325 1458.5 315.5Q1453 306 1439 295.5Q1425 285 1388 268.5Q1351 252 1330.5 239.5Q1310 227 1301.5 219Q1293 211 1284.5 199.5Q1276 188 1270.5 170.5Q1265 153 1264.5 130Q1264 107 1268.5 91.5Q1273 76 1278.5 66.5Q1284 57 1302 39.5Q1320 22 1337 14Q1354 6 1369.5 3L1385 0L1429 0L1471 9L1519 34Z M414 12Q590 12 602.5 12.5Q615 13 637 17Q659 21 679.5 29Q700 37 711 43.5Q722 50 745 70Q768 90 779.5 106Q791 122 799.5 140Q808 158 814 186Q820 214 820 233.5Q820 253 814 280.5Q808 308 799.5 326Q791 344 781 358.5Q771 373 755 388.5Q739 404 724 414Q709 424 695.5 430.5Q682 437 672.5 440.5Q663 444 641 448.5Q619 453 515.5 453L412 453L411 15Z M918 12L1172 14L1171 85L1005 85L1003 88L1005 192L1146 194L1145 265L1004 267L1003 378L1005 381L1171 381L1170 454L915 452L915 14Z M503 92L500 94L500 372Q609 373 625 369Q641 365 656 357Q671 349 683.5 337.5Q696 326 704 314.5Q712 303 720 279Q728 255 728 233Q728 211 726 202Q724 193 720 182Q716 171 709.5 160Q703 149 692.5 137.5Q682 126 674 120Q666 114 648.5 106Q631 98 614.5 95Q598 92 550.5 92Z"/>
</g>
<path fill="#3c6c48" d="M407.5 14 L426.8 14 L426.8 69 L408.5 89.2 L407.5 89.2 Z"/>
<rect fill="#609c30" x="435" y="26.8" width="19.8" height="42"/>
<rect fill="#fc6c24" x="462.8" y="0" width="19.4" height="68.8"/>
</svg>
